<svg width="124" height="67" viewBox="0 0 124 67" fill="none" xmlns="http://www.w3.org/2000/svg">
<g id="btn_floating">
<g id="Rectangle 35" filter="url(#filter0_d_197_11933)">
<rect x="1" width="158" height="55" rx="27.5" fill="url(#paint0_linear_197_11933)" fill-opacity="0.9" shape-rendering="crispEdges"/>
</g>
<path id="&#235;&#185;&#160;&#235;&#165;&#180;&#234;&#179;&#160; &#236;&#137;&#189;&#234;&#178;&#140; &#236;&#167;&#128;&#234;&#184;&#136;&#236;&#152;&#136;&#235;&#167;&#164;" d="M30.29 13.96V17.38H31.54V18.02H30.29V22.7H29.56V13.96H30.29ZM25.91 20.54H23.66V14.79H24.33V17.05H25.24V14.79H25.91V20.54ZM25.24 19.91V17.68H24.33V19.91H25.24ZM28.77 20.54H26.52V14.79H27.19V17.05H28.09V14.79H28.77V20.54ZM28.09 19.91V17.68H27.19V19.91H28.09ZM39.1123 19.4H32.9723V16.66H38.1223V15.29H32.9423V14.65H38.8823V17.29H33.7323V18.76H39.1123V19.4ZM39.8723 21.51H31.9823V20.87H39.8723V21.51ZM48.4747 21.44H40.5847V20.8H43.5947V17.64H44.3547V20.8H48.4747V21.44ZM47.4147 14.87V15.97C47.4047 17.3 47.3247 18.66 47.0647 19.77L46.3147 19.65C46.5147 18.83 46.6247 17.51 46.6247 16.36V15.51H41.3947V14.87H47.4147ZM58.924 22.58H53.104V19.51H53.854V20.37H58.174V19.49H58.924V22.58ZM57.164 16.51L56.784 17.09C55.984 16.92 54.964 16.29 54.594 15.63C54.334 16.32 53.294 17.06 52.394 17.31L51.974 16.74C52.924 16.54 54.214 15.73 54.214 14.5V14.23H54.974V14.48C54.974 15.65 56.184 16.3 57.164 16.51ZM55.004 19.65H54.244V18.46C53.314 18.5 52.434 18.53 51.874 18.54L51.744 17.89C52.484 17.89 53.524 17.86 54.554 17.82C55.694 17.76 56.934 17.69 57.574 17.61L57.634 18.19C57.064 18.28 55.954 18.36 55.004 18.42V19.65ZM58.174 21.95V21H53.854V21.95H58.174ZM58.924 19.05H58.164V13.96H58.924V19.05ZM67.7363 22.7H66.9863V13.96H67.7363V22.7ZM66.0363 22.26H65.3063V18H63.8363V17.36H65.3063V14.17H66.0363V22.26ZM64.0563 14.98C63.9963 17.58 62.8563 19.5 60.7963 20.83L60.2763 20.27C62.1063 19.24 63.1863 17.4 63.2763 15.62H60.6163V14.98H64.0563ZM31.805 36.835L30.905 37.96C29.66 37.27 28.04 35.56 27.605 34.18C27.26 35.62 25.91 37.39 24.32 38.23L23.345 37.105C25.475 35.905 26.81 33.79 26.81 31.09V30.43H24.02V29.215H31.115V30.43H28.4V31.075C28.4 33.775 29.84 35.77 31.805 36.835ZM34.46 41.185H32.93V27.82H34.46V41.185ZM46.8835 41.02H37.8985V36.115H46.8835V41.02ZM46.8385 28.39C46.8385 30.175 46.7035 31.9 46.4185 33.205H48.4285V34.45H36.3535V33.205H44.9485C45.1585 32.29 45.2935 30.67 45.3085 29.62H37.8985V28.39H46.8385ZM45.3535 39.79V37.315H39.4285V39.79H45.3535ZM56.442 36.25H54.777C54.327 37.495 53.532 38.32 52.287 38.32C50.292 38.32 49.407 36.16 49.407 33.625C49.407 31.105 50.292 28.96 52.287 28.96C53.472 28.96 54.267 29.725 54.717 30.865H56.442V28.075H57.897V40.555H56.442V36.25ZM60.522 41.185H59.052V27.82H60.522V41.185ZM53.712 33.64C53.712 31.705 53.262 30.28 52.302 30.28C51.357 30.28 50.892 31.705 50.892 33.64C50.892 35.575 51.357 36.97 52.302 36.97C53.262 36.97 53.712 35.575 53.712 33.64ZM55.167 33.64C55.167 34.135 55.122 34.615 55.062 35.05H56.442V32.08H55.032C55.122 32.575 55.167 33.1 55.167 33.64ZM67.9355 29.44V37.645H62.5955V29.44H67.9355ZM73.4255 41.185H71.9405V34.42H70.6805V40.555H69.2255V28.09H70.6805V33.13H71.9405V27.82H73.4255V41.185ZM66.4955 36.445V30.655H64.0505V36.445H66.4955Z" fill="white"/>
</g>
<defs>
<filter id="filter0_d_197_11933" x="0" y="0" width="170" height="67" filterUnits="userSpaceOnUse" color-interpolation-filters="sRGB">
<feFlood flood-opacity="0" result="BackgroundImageFix"/>
<feColorMatrix in="SourceAlpha" type="matrix" values="0 0 0 0 0 0 0 0 0 0 0 0 0 0 0 0 0 0 127 0" result="hardAlpha"/>
<feOffset dx="5" dy="6"/>
<feGaussianBlur stdDeviation="3"/>
<feComposite in2="hardAlpha" operator="out"/>
<feColorMatrix type="matrix" values="0 0 0 0 0 0 0 0 0 0 0 0 0 0 0 0 0 0 0.4 0"/>
<feBlend mode="normal" in2="BackgroundImageFix" result="effect1_dropShadow_197_11933"/>
<feBlend mode="normal" in="SourceGraphic" in2="effect1_dropShadow_197_11933" result="shape"/>
</filter>
<linearGradient id="paint0_linear_197_11933" x1="5.4717" y1="55" x2="129.686" y2="55" gradientUnits="userSpaceOnUse">
<stop stop-color="#FB4458"/>
<stop offset="1" stop-color="#F06330"/>
</linearGradient>
</defs>
</svg>
