<svg width="16" height="16" viewBox="0 0 16 16" fill="none" xmlns="http://www.w3.org/2000/svg">
<g id="ic_check">
<g id="Group">
<path id="Vector" fill-rule="evenodd" clip-rule="evenodd" d="M12.3008 4.79714C12.4274 4.91539 12.4985 5.07576 12.4985 5.24297C12.4985 5.41018 12.4274 5.57054 12.3008 5.68879L7.23869 10.4152C7.17179 10.4777 7.09237 10.5273 7.00496 10.5611C6.91755 10.5949 6.82386 10.6123 6.72924 10.6123C6.63462 10.6123 6.54093 10.5949 6.45352 10.5611C6.36611 10.5273 6.28668 10.4777 6.21979 10.4152L3.70472 8.06736C3.64021 8.00919 3.58876 7.93961 3.55337 7.86268C3.51797 7.78574 3.49934 7.703 3.49856 7.61927C3.49778 7.53554 3.51487 7.4525 3.54883 7.37501C3.58279 7.29751 3.63293 7.2271 3.69635 7.1679C3.75976 7.10869 3.83516 7.06187 3.91816 7.03016C4.00116 6.99845 4.0901 6.9825 4.17977 6.98323C4.26945 6.98395 4.35807 7.00135 4.44047 7.0344C4.52286 7.06745 4.59739 7.11548 4.65969 7.17571L6.72901 9.10783L11.3454 4.79714C11.4081 4.73854 11.4826 4.69206 11.5645 4.66034C11.6465 4.62863 11.7344 4.6123 11.8231 4.6123C11.9118 4.6123 11.9997 4.62863 12.0816 4.66034C12.1636 4.69206 12.2381 4.73854 12.3008 4.79714Z" fill="#FF6362"/>
</g>
</g>
</svg>
