<svg width="24" height="25" viewBox="0 0 24 25" fill="none" xmlns="http://www.w3.org/2000/svg">
<g id="ic_card">
<path id="Vector" d="M21.2857 4.14355H2.71429C2.3192 4.14355 2 4.46855 2 4.87083V19.4163C2 19.8186 2.3192 20.1436 2.71429 20.1436H21.2857C21.6808 20.1436 22 19.8186 22 19.4163V4.87083C22 4.46855 21.6808 4.14355 21.2857 4.14355ZM3.60714 5.77992H20.3929V8.50719H3.60714V5.77992ZM20.3929 18.5072H3.60714V10.5072H20.3929V18.5072ZM15.1027 17.0526H18.7857C18.8839 17.0526 18.9643 16.9708 18.9643 16.8708V15.2345C18.9643 15.1345 18.8839 15.0526 18.7857 15.0526H15.1027C15.0045 15.0526 14.9241 15.1345 14.9241 15.2345V16.8708C14.9241 16.9708 15.0045 17.0526 15.1027 17.0526Z" fill="#ACACAC"/>
</g>
</svg>
