<svg width="24" height="24" viewBox="0 0 24 24" fill="none" xmlns="http://www.w3.org/2000/svg">
<path fill-rule="evenodd" clip-rule="evenodd" d="M5.24832 5.24832C5.57942 4.91723 6.11623 4.91723 6.44733 5.24832L11.5 10.301L16.5527 5.24832C16.8838 4.91723 17.4206 4.91723 17.7517 5.24832C18.0828 5.57942 18.0828 6.11623 17.7517 6.44733L12.699 11.5L15.7906 14.5916L17.7517 16.5527C18.0828 16.8838 18.0828 17.4206 17.7517 17.7517C17.4206 18.0828 16.8838 18.0828 16.5527 17.7517L11.5 12.699L6.44733 17.7517C6.11623 18.0828 5.57942 18.0828 5.24832 17.7517C4.91723 17.4206 4.91723 16.8838 5.24832 16.5527L10.301 11.5L5.24832 6.44733C4.91723 6.11623 4.91723 5.57942 5.24832 5.24832Z" fill="#222222"/>
</svg>
