<svg width="24" height="24" viewBox="0 0 24 24" fill="none" xmlns="http://www.w3.org/2000/svg">
<path d="M21.5 4H2.5C2.22386 4 2 4.22386 2 4.5C2 4.77614 2.22386 5 2.5 5H21.5C21.7761 5 22 4.77614 22 4.5C22 4.22386 21.7761 4 21.5 4Z" fill="white"/>
<path d="M21.5 12H2.5C2.22386 12 2 12.2239 2 12.5C2 12.7761 2.22386 13 2.5 13H21.5C21.7761 13 22 12.7761 22 12.5C22 12.2239 21.7761 12 21.5 12Z" fill="white"/>
<path d="M21.5 20H2.5C2.22386 20 2 20.2239 2 20.5C2 20.7761 2.22386 21 2.5 21H21.5C21.7761 21 22 20.7761 22 20.5C22 20.2239 21.7761 20 21.5 20Z" fill="white"/>
</svg>
