<svg width="16" height="16" viewBox="0 0 16 16" fill="none" xmlns="http://www.w3.org/2000/svg">
    <g id="ic_heart_on_16px">
        <path id="Vector"
            d="M8 13C7.92105 13.0005 7.84278 12.9842 7.76969 12.952C7.69659 12.9198 7.63011 12.8723 7.57406 12.8123L2.91268 7.77809C2.32797 7.14083 2 6.28047 2 5.3839C2 4.48733 2.32797 3.62698 2.91268 2.98972C3.50196 2.35592 4.30019 2 5.13238 2C5.96457 2 6.76281 2.35592 7.35209 2.98972L8 3.68856L8.64791 2.98972C9.23719 2.35592 10.0354 2 10.8676 2C11.6998 2 12.498 2.35592 13.0873 2.98972C13.672 3.62698 14 4.48733 14 5.3839C14 6.28047 13.672 7.14083 13.0873 7.77809L8.42594 12.8123C8.36989 12.8723 8.30341 12.9198 8.23031 12.952C8.15722 12.9842 8.07895 13.0005 8 13Z"
            fill="#FA4357" />
    </g>
</svg>