<svg width="16" height="16" viewBox="0 0 16 16" fill="none" xmlns="http://www.w3.org/2000/svg">
<g id="ic_heart_off_16px">
<path id="Vector" d="M10.87 3.00091C11.43 3.00091 11.96 3.24113 12.35 3.67152C12.76 4.12193 13 4.7525 13 5.39308C13 6.03367 12.76 6.66424 12.35 7.10464L8 11.8089L3.65 7.10464C3.24 6.65423 3 6.02366 3 5.38308C3 4.74249 3.24 4.11192 3.65 3.67152C4.05 3.24113 4.58 3.00091 5.14 3.00091C5.7 3.00091 6.23 3.24113 6.63 3.67152L7.28 4.37216L8.01 5.16288L8.74 4.37216L9.39 3.67152C9.79 3.24113 10.32 3.00091 10.88 3.00091M10.88 2C10.05 2 9.25 2.36033 8.66 2.9909L8.01 3.69154L7.36 2.9909C6.77 2.36033 5.97 2 5.14 2C4.31 2 3.5 2.36033 2.91 2.9909C2.33 3.63148 2 4.49227 2 5.38308C2 6.27389 2.33 7.14468 2.91 7.77525L7.57 12.8098C7.63 12.8699 7.69 12.9199 7.77 12.95C7.84 12.98 7.92 13 8 13C8.08 13 8.15 12.98 8.23 12.95C8.3 12.9199 8.37 12.8699 8.43 12.8098L13.09 7.77525C13.67 7.13467 14 6.27389 14 5.38308C14 4.49227 13.67 3.62147 13.09 2.9909C12.5 2.36033 11.7 2 10.87 2L10.88 2Z" fill="#FA4357"/>
</g>
</svg>
