<svg width="54" height="54" viewBox="0 0 54 54" fill="none" xmlns="http://www.w3.org/2000/svg">
<g id="ic_membership_54px">
<path id="Vector" d="M27 52C40.8071 52 52 40.8071 52 27C52 13.1929 40.8071 2 27 2C13.1929 2 2 13.1929 2 27C2 40.8071 13.1929 52 27 52Z" fill="#FA4357"/>
<path id="Vector_2" d="M27 49C39.1503 49 49 39.1503 49 27C49 14.8497 39.1503 5 27 5C14.8497 5 5 14.8497 5 27C5 39.1503 14.8497 49 27 49Z" fill="white"/>
<g id="Clip path group">
<mask id="mask0_166_9336" style="mask-type:luminance" maskUnits="userSpaceOnUse" x="6" y="6" width="42" height="42">
<g id="clip0_143_1756">
<path id="Vector_3" d="M48 6H6V48H48V6Z" fill="white"/>
</g>
</mask>
<g mask="url(#mask0_166_9336)">
<g id="Group">
<path id="Vector_4" d="M27 48C21.4305 48 16.089 45.7875 12.1508 41.8492C8.21249 37.911 6 32.5695 6 27C6 21.4305 8.21249 16.089 12.1508 12.1508C16.089 8.21249 21.4305 6 27 6C32.5695 6 37.911 8.21249 41.8492 12.1508C45.7875 16.089 48 21.4305 48 27C48 32.5695 45.7875 37.911 41.8492 41.8492C37.911 45.7875 32.5695 48 27 48ZM29.2234 26.6194C30.6783 26.0959 31.9019 25.076 32.6787 23.7391C33.4555 22.4022 33.7357 20.8341 33.4701 19.3109C33.2044 17.7877 32.4099 16.4071 31.2263 15.4121C30.0428 14.4172 28.5462 13.8717 27 13.8717C25.4538 13.8717 23.9572 14.4172 22.7737 15.4121C21.5901 16.4071 20.7956 17.7877 20.5299 19.3109C20.2643 20.8341 20.5445 22.4022 21.3213 23.7391C22.0981 25.076 23.3217 26.0959 24.7766 26.6194C20.3614 27.6851 16.5 31.6594 16.5 34.875C16.5 35.9119 16.8806 37.4869 19.125 37.4869H34.875C37.1194 37.4869 37.5 35.9119 37.5 34.875C37.5 31.662 33.6413 27.6825 29.2234 26.6194Z" fill="#B4B4B4"/>
</g>
</g>
</g>
<path id="Vector_5" d="M35.532 41.2861H18.4684C15.5098 41.2861 13.1113 43.6846 13.1113 46.6433V46.6433C13.1113 49.602 15.5098 52.0004 18.4684 52.0004H35.532C38.4906 52.0004 40.8891 49.602 40.8891 46.6433V46.6433C40.8891 43.6846 38.4906 41.2861 35.532 41.2861Z" fill="#FA4357"/>
<path id="Vector_6" d="M26.3541 46.7919H25.8981V44.1399H26.3541V46.7919ZM26.5461 49.3119H22.9581V47.9859H25.8981V47.4399H22.9401V47.0679H26.3541V48.3399H23.4141V48.9399H26.5461V49.3119ZM23.5761 44.3019C24.3261 44.3019 24.9321 44.7759 24.9321 45.4899C24.9321 46.1979 24.3261 46.6599 23.5761 46.6599C22.8261 46.6599 22.2081 46.2039 22.2081 45.4899C22.2081 44.7819 22.8201 44.3019 23.5761 44.3019ZM23.5761 44.6979C23.0601 44.6979 22.6521 45.0159 22.6521 45.4839C22.6521 45.9519 23.0541 46.2639 23.5761 46.2639C24.1221 46.2639 24.4881 45.9519 24.4881 45.4899C24.4881 45.0219 24.1221 44.6979 23.5761 44.6979ZM32.0616 46.0839H31.2636V47.9439H30.8076V44.1399H31.2636V45.6999H32.0616V46.0839ZM31.4676 49.2039H27.9276V47.5899H28.3836V48.8259H31.4676V49.2039ZM29.8716 47.1519H27.3936V44.4939H27.8496V45.3939H29.4096V44.4939H29.8716V47.1519ZM29.4096 46.7799V45.7659H27.8496V46.7799H29.4096Z" fill="white"/>
</g>
</svg>
