<svg width="30" height="30" viewBox="0 0 30 30" fill="none" xmlns="http://www.w3.org/2000/svg">
<g clip-path="url(#clip0_166_9300)">
<mask id="mask0_166_9300" style="mask-type:luminance" maskUnits="userSpaceOnUse" x="-1" y="4" width="30" height="24">
<path d="M29 4H-1V28H29V4Z" fill="white"/>
</mask>
<g mask="url(#mask0_166_9300)">
<path d="M22.3064 15.9726C22.3065 15.3422 22.5446 14.7351 22.973 14.2727C23.4014 13.8103 23.9886 13.5266 24.6171 13.4785C24.6693 13.4743 24.7179 13.4507 24.7533 13.4122C24.7887 13.3737 24.8083 13.3232 24.8081 13.2709L24.81 9.92563C24.8099 9.87038 24.788 9.81739 24.7489 9.77832C24.7098 9.73925 24.6569 9.7173 24.6016 9.71729H19.2725C19.0759 9.71726 18.882 9.76304 18.7062 9.85101C18.5302 9.93944 18.3361 9.98565 18.1392 9.98598C17.9422 9.98631 17.7479 9.94074 17.5717 9.8529C17.3957 9.7649 17.2017 9.71899 17.005 9.7188L3.33979 9.71729C3.28453 9.7173 3.23155 9.73925 3.19248 9.77832C3.15341 9.81739 3.13145 9.87038 3.13144 9.92563V13.269C3.13121 13.3213 3.15076 13.3718 3.18616 13.4103C3.22157 13.4488 3.27022 13.4724 3.32236 13.4766C3.95114 13.5243 4.53867 13.8078 4.96734 14.2703C5.39602 14.7328 5.6342 15.3401 5.6342 15.9707C5.6342 16.6012 5.39602 17.2086 4.96734 17.671C4.53867 18.1335 3.95114 18.417 3.32236 18.4647C3.27022 18.4689 3.22157 18.4926 3.18617 18.5311C3.15076 18.5696 3.13121 18.62 3.13144 18.6723V22.0157C3.13146 22.071 3.15341 22.1239 3.19248 22.163C3.23155 22.2021 3.28454 22.224 3.33979 22.224L17.0069 22.2244C17.2036 22.2242 17.3976 22.1783 17.5736 22.0903C17.7495 22.0019 17.9437 21.9557 18.1406 21.9554C18.3375 21.955 18.5318 22.0006 18.7081 22.0884C18.8839 22.1764 19.0778 22.2222 19.2744 22.2222H24.6035C24.6588 22.2221 24.7117 22.2002 24.7508 22.1611C24.7899 22.122 24.8118 22.0691 24.8118 22.0138V18.6704C24.8121 18.6181 24.7925 18.5677 24.7571 18.5292C24.7217 18.4907 24.6731 18.467 24.6209 18.4628C23.9924 18.4157 23.4048 18.133 22.9757 17.6713C22.5466 17.2096 22.3075 16.6029 22.3064 15.9726Z" stroke="#222222" stroke-width="1.5" stroke-miterlimit="10"/>
<path d="M18.54 11.3556V10.0967M18.54 14.7122L18.5397 13.873M18.5397 18.0692L18.54 17.23M18.54 21.8455V20.5866" stroke="#222222" stroke-width="1.5" stroke-miterlimit="10" stroke-linecap="round"/>
<path d="M24 5H20C17.2386 5 15 7.23858 15 10C15 12.7614 17.2386 15 20 15H24C26.7614 15 29 12.7614 29 10C29 7.23858 26.7614 5 24 5Z" fill="#FA4357"/>
<path d="M22.9297 7.34375V13H21.9062V8.33594H21.875L20.5547 9.17969V8.25L21.9531 7.34375H22.9297Z" fill="white"/>
</g>
</g>
<defs>
<clipPath id="clip0_166_9300">
<rect width="30" height="30" fill="white"/>
</clipPath>
</defs>
</svg>
