<svg width="30" height="24" viewBox="0 0 30 24" fill="none" xmlns="http://www.w3.org/2000/svg">
<g clip-path="url(#clip0_384_1836)">
<path d="M23.3064 11.9725C23.3065 11.3421 23.5446 10.735 23.973 10.2726C24.4014 9.81016 24.9886 9.52652 25.6171 9.47838C25.6693 9.47424 25.7179 9.45055 25.7533 9.41205C25.7887 9.37355 25.8083 9.32309 25.8081 9.27079L25.81 5.92552C25.8099 5.87027 25.788 5.81728 25.7489 5.77821C25.7098 5.73914 25.6569 5.71719 25.6016 5.71718L20.2725 5.71718C20.0759 5.71715 19.882 5.76293 19.7062 5.8509C19.5302 5.93933 19.3361 5.98554 19.1392 5.98587C18.9422 5.9862 18.7479 5.94063 18.5717 5.85279C18.3957 5.76479 18.2017 5.71888 18.005 5.71869L4.3398 5.71718C4.28454 5.71719 4.23156 5.73914 4.19249 5.77821C4.15342 5.81728 4.13146 5.87027 4.13145 5.92552L4.13145 9.26889C4.13122 9.3212 4.15077 9.37166 4.18617 9.41015C4.22158 9.44865 4.27023 9.47234 4.32237 9.47648C4.95115 9.52424 5.53868 9.80773 5.96735 10.2702C6.39603 10.7327 6.63421 11.34 6.63421 11.9706C6.63421 12.6011 6.39603 13.2085 5.96735 13.6709C5.53868 14.1334 4.95115 14.4169 4.32237 14.4646C4.27023 14.4688 4.22158 14.4925 4.18618 14.531C4.15077 14.5695 4.13122 14.6199 4.13145 14.6722L4.13145 18.0156C4.13147 18.0709 4.15342 18.1238 4.19249 18.1629C4.23156 18.202 4.28455 18.2239 4.3398 18.2239L18.0069 18.2243C18.2036 18.2241 18.3976 18.1782 18.5736 18.0902C18.7495 18.0018 18.9437 17.9556 19.1406 17.9553C19.3375 17.9549 19.5318 18.0005 19.7081 18.0883C19.8839 18.1763 20.0778 18.2221 20.2744 18.2221L25.6035 18.2221C25.6588 18.222 25.7117 18.2001 25.7508 18.161C25.7899 18.1219 25.8118 18.069 25.8118 18.0137L25.8118 14.6703C25.8121 14.618 25.7925 14.5676 25.7571 14.5291C25.7217 14.4906 25.6731 14.4669 25.6209 14.4627C24.9924 14.4156 24.4048 14.1329 23.9757 13.6712C23.5466 13.2095 23.3075 12.6028 23.3064 11.9725Z" stroke="#222222" stroke-width="1.5" stroke-miterlimit="10"/>
<path d="M19.54 7.35559L19.54 6.09668M19.54 10.7122L19.5397 9.87304M19.5397 14.0692L19.54 13.23M19.54 17.8455L19.54 16.5866" stroke="#222222" stroke-width="1.5" stroke-miterlimit="10" stroke-linecap="round"/>
<rect x="16" y="1" width="14" height="10" rx="5" fill="#FA4357"/>
<path d="M23.9297 3.34375V9H22.9062V4.33594H22.875L21.5547 5.17969V4.25L22.9531 3.34375H23.9297Z" fill="white"/>
</g>
<defs>
<clipPath id="clip0_384_1836">
<rect width="30" height="24" fill="white"/>
</clipPath>
</defs>
</svg>
