<svg width="124" height="52" viewBox="0 0 124 52" fill="none" xmlns="http://www.w3.org/2000/svg">
<g clip-path="url(#clip0_154_9202)">
<path d="M114.452 5.92764L112.795 1.48989C112.724 1.29925 112.614 1.12371 112.47 0.973351C112.327 0.822988 112.154 0.700749 111.961 0.613637C111.768 0.526524 111.558 0.476248 111.344 0.46569C111.13 0.455132 110.916 0.484499 110.714 0.552109C110.307 0.687581 109.973 0.970297 109.786 1.33808C109.599 1.70587 109.575 2.12861 109.718 2.51333L111.465 7.19002L113.562 8.31133L114.452 5.92764Z" fill="#E42313"/>
<path d="M117.437 7.19018L119.183 2.51348C119.31 2.13289 119.276 1.7206 119.087 1.36362C118.898 1.00664 118.569 0.732881 118.17 0.600105C117.772 0.467329 117.334 0.485922 116.949 0.65196C116.565 0.817999 116.264 1.1185 116.109 1.49005L114.451 5.9278L115.341 8.31149L117.437 7.19018Z" fill="#EC6707"/>
<path d="M123.048 5.9544C122.942 5.77872 122.801 5.62445 122.632 5.5004C122.463 5.37635 122.269 5.28495 122.063 5.23141C121.856 5.17788 121.64 5.16326 121.428 5.1884C121.215 5.21353 121.01 5.27793 120.824 5.37791L117.436 7.19014L116.521 9.64652L118.29 10.2734L122.433 8.05308C122.809 7.85186 123.085 7.5178 123.201 7.12437C123.316 6.73094 123.261 6.30964 123.048 5.9544Z" fill="#E42313"/>
<path d="M116.082 12.7771L119.634 14.0337C120.04 14.1769 120.488 14.1624 120.882 13.9934C121.276 13.8245 121.583 13.5148 121.735 13.1326C121.887 12.7504 121.871 12.3269 121.692 11.9554C121.513 11.5838 121.185 11.2946 120.78 11.1512L118.291 10.2732L116.083 11.4535L116.082 12.7771Z" fill="#EC6707"/>
<path d="M112.818 12.7771V15.209C112.818 16.0575 113.55 16.7456 114.451 16.7456C115.351 16.7456 116.083 16.0575 116.083 15.209V12.7764L114.451 12.2006L112.818 12.7771ZM110.61 10.2732L108.124 11.1512C107.719 11.2943 107.39 11.5834 107.211 11.9548C107.032 12.3262 107.016 12.7497 107.168 13.1319C107.32 13.5141 107.626 13.8239 108.02 13.993C108.413 14.1621 108.862 14.1768 109.267 14.0337L112.818 12.7764V11.4535L110.61 10.2732Z" fill="#E42313"/>
<path d="M111.463 7.19012L108.077 5.37788C107.701 5.17626 107.255 5.1238 106.838 5.23204C106.421 5.34029 106.067 5.60037 105.853 5.95509C105.64 6.31037 105.586 6.73089 105.701 7.12426C105.816 7.51764 106.093 7.8517 106.469 8.05306L110.61 10.2734L112.381 9.64722L111.463 7.19012Z" fill="#EC6707"/>
<path d="M52.7996 51.3106C58.5468 51.3106 63.7845 49.019 67.4921 45.3996C70.0205 42.9349 71.8376 39.9001 72.7702 36.5846L79.1887 47.9639C79.676 48.8319 80.4044 49.5584 81.296 50.0655C82.1875 50.5727 83.2084 50.8414 84.2494 50.8428C86.3721 50.8428 88.3148 49.7337 89.3124 47.9647L104.995 20.1643C105.35 19.5358 105.57 18.8475 105.642 18.1388C105.715 17.43 105.638 16.7147 105.418 16.0338C105.197 15.3529 104.836 14.7198 104.356 14.1706C103.875 13.6214 103.285 13.167 102.618 12.8333C99.813 11.4263 96.3288 12.4303 94.8384 15.0745L84.723 33.6704L84.2502 35.1984L83.7795 33.6704L73.6619 15.0745C72.1738 12.431 68.6904 11.4263 65.885 12.8333C65.2183 13.1669 64.6278 13.6212 64.1473 14.1704C63.6669 14.7195 63.306 15.3527 63.0852 16.0336C62.8644 16.7146 62.7882 17.43 62.8608 18.1388C62.9334 18.8475 63.1535 19.5359 63.5084 20.1643L67.2862 26.867H55.6263C52.9842 26.867 50.8394 28.9513 50.8394 31.5235C50.8394 34.0951 52.9842 36.1786 55.6263 36.1786H61.3918C59.8389 38.4342 57.1983 40.6236 52.7828 40.6236C50.22 40.6193 47.9379 39.6354 46.2012 37.9599C44.4782 36.2772 43.3943 33.9583 43.392 31.3299C43.3844 26.7713 46.7 23.0835 50.831 22.2364C52.2973 21.9292 53.5744 21.0854 54.3817 19.8903C55.189 18.6952 55.4606 17.2465 55.1366 15.8626C54.9475 15.0558 54.5625 14.3015 54.0119 13.6591C53.4613 13.0166 52.7601 12.5036 51.9636 12.1604C49.7059 11.2305 46.9296 12.1604 46.9296 12.1604C38.2382 14.629 32.0715 22.3314 32.0654 31.3299C32.0654 32.4916 32.1737 33.6323 32.3736 34.7435C30.5613 37.5619 27.1481 41.1015 21.4344 41.1015C15.9443 41.0907 11.4236 36.8473 11.4213 31.5243C11.4236 26.7943 14.987 22.9179 19.6283 22.1018C19.6283 22.1018 20.7983 21.888 22.6792 21.7398C24.4869 21.5958 27.0916 19.6037 27.0916 16.6046C27.0916 15.9037 26.9453 15.2096 26.661 14.562C26.3767 13.9145 25.9599 13.3261 25.4346 12.8305C24.9093 12.3349 24.2856 11.9419 23.5992 11.6738C22.9129 11.4057 22.1773 11.2678 21.4344 11.2679C9.61664 11.2766 0.13128 20.3702 0.108398 31.5243C0.130518 42.6741 9.61664 51.7698 21.4344 51.777C27.8681 51.7719 33.6054 49.0737 37.5052 44.8195C37.5052 44.8195 42.984 51.3106 52.7996 51.3106Z" fill="#E42313"/>
</g>
<defs>
<clipPath id="clip0_154_9202">
<rect width="123.153" height="51.3136" fill="white" transform="translate(0.108398 0.462891)"/>
</clipPath>
</defs>
</svg>
